<svg width="2320" height="1520" viewBox="0 0 580 380" xmlns="http://www.w3.org/2000/svg" role="img" aria-label="L3-EDX4MA1-U5 cover">
  <rect width="580" height="380" fill="#F8FBFF"/>
  <rect width="580" height="184" fill="#EDF4FF" opacity="0.75"/>
  <rect x="0" y="0" width="580" height="12" fill="#2563EB"/>
  <rect x="0" y="12" width="580" height="48" fill="#EAF1FF"/>

  <rect x="30" y="22" width="188" height="28" rx="14" fill="#1D4ED8"/>
  <text x="124" y="40" text-anchor="middle" font-family="Avenir Next, Inter, Arial, sans-serif" font-size="12" font-weight="800" fill="#FFFFFF">L3 Unit Bundle</text>

  <rect x="226" y="22" width="136" height="28" rx="14" fill="#FFFFFF"/>
  <text x="294" y="40" text-anchor="middle" font-family="Avenir Next, Inter, Arial, sans-serif" font-size="12" font-weight="800" fill="#1E4FB7">Edexcel 4MA1</text>

  <rect x="370" y="22" width="180" height="28" rx="14" fill="#FFFFFF"/>
  <text x="460" y="40" text-anchor="middle" font-family="Avenir Next, Inter, Arial, sans-serif" font-size="12" font-weight="800" fill="#425466">Foundation + Higher</text>

  <rect x="30" y="76" width="520" height="248" rx="20" fill="#FFFFFF"/>
  <rect x="30" y="76" width="9" height="248" fill="#1D4ED8"/>
  <rect x="37" y="76" width="2" height="248" fill="#2563EB" opacity="0.75"/>

  <text x="60" y="120" font-family="Avenir Next, Inter, Arial, sans-serif" font-size="18" font-weight="700" fill="#5A6D84">L3-EDX4MA1-U5</text>
  <text x="60" y="158" font-family="Avenir Next, Inter, Arial, sans-serif" font-size="46" font-weight="800" fill="#10233A">U5 Vectors and</text>
  <text x="60" y="207" font-family="Avenir Next, Inter, Arial, sans-serif" font-size="46" font-weight="800" fill="#10233A">Transformations</text>
  <text x="60" y="244" font-family="Avenir Next, Inter, Arial, sans-serif" font-size="19" font-weight="700" fill="#27445E">Unit Bundle</text>
  <text x="60" y="266" font-family="Avenir Next, Inter, Arial, sans-serif" font-size="16" font-weight="700" fill="#4A617B">Edexcel 4MA1</text>

  <rect x="60" y="276" width="214" height="30" rx="9" fill="#F7FAFD" stroke="#D9E3EF"/>
  <text x="72" y="296" font-family="Avenir Next, Inter, Arial, sans-serif" font-size="12" font-weight="800" fill="#2A3E56">2 Sections | 4 SubTopics</text>

  <rect x="286" y="276" width="244" height="30" rx="9" fill="#F7FAFD" stroke="#D9E3EF"/>
  <text x="298" y="296" font-family="Avenir Next, Inter, Arial, sans-serif" font-size="12" font-weight="800" fill="#2A3E56">EB US$20 | REG US$25</text>

  <text x="60" y="319" font-family="Avenir Next, Inter, Arial, sans-serif" font-size="11" font-weight="700" fill="#5F7389">EB End 2026-04-30 | Release 2026-05-31</text>

  <rect x="0" y="334" width="580" height="46" fill="#2563EB"/>
  <text x="30" y="362" font-family="Avenir Next, Inter, Arial, sans-serif" font-size="16" font-weight="800" fill="#FFFFFF">25Maths Payhip Presale</text>
  <text x="550" y="362" text-anchor="end" font-family="Avenir Next, Inter, Arial, sans-serif" font-size="12" font-weight="700" fill="#FFFFFF">Kahoot + Worksheet + Exam Support</text>
</svg>
