<svg width="2320" height="1520" viewBox="0 0 580 380" xmlns="http://www.w3.org/2000/svg" role="img" aria-label="L4-CIE0580-ALLUNITS cover">
  <rect width="580" height="380" fill="#FFFEF9"/>
  <rect width="580" height="184" fill="#FFF8E8" opacity="0.75"/>
  <rect x="0" y="0" width="580" height="12" fill="#8B1538"/>
  <rect x="0" y="12" width="580" height="48" fill="#F8EAF0"/>

  <rect x="30" y="22" width="188" height="28" rx="14" fill="#92400E"/>
  <text x="124" y="40" text-anchor="middle" font-family="Avenir Next, Inter, Arial, sans-serif" font-size="12" font-weight="800" fill="#FFFFFF">L4 All-Units Bundle</text>

  <rect x="226" y="22" width="136" height="28" rx="14" fill="#FFFFFF"/>
  <text x="294" y="40" text-anchor="middle" font-family="Avenir Next, Inter, Arial, sans-serif" font-size="12" font-weight="800" fill="#5E1025">CIE 0580</text>

  <rect x="370" y="22" width="180" height="28" rx="14" fill="#FFFFFF"/>
  <text x="460" y="40" text-anchor="middle" font-family="Avenir Next, Inter, Arial, sans-serif" font-size="12" font-weight="800" fill="#425466">All tiers (9 units)</text>

  <rect x="30" y="76" width="520" height="248" rx="20" fill="#FFFFFF"/>
  <rect x="30" y="76" width="9" height="248" fill="#92400E"/>
  <rect x="37" y="76" width="2" height="248" fill="#8B1538" opacity="0.75"/>

  <text x="60" y="120" font-family="Avenir Next, Inter, Arial, sans-serif" font-size="18" font-weight="700" fill="#5A6D84">L4-CIE0580-ALLUNITS</text>
  <text x="60" y="164" font-family="Avenir Next, Inter, Arial, sans-serif" font-size="46" font-weight="800" fill="#10233A">CIE 0580 All Units</text>
  <text x="60" y="244" font-family="Avenir Next, Inter, Arial, sans-serif" font-size="19" font-weight="700" fill="#27445E">All-Units Mega Bundle</text>
  <text x="60" y="266" font-family="Avenir Next, Inter, Arial, sans-serif" font-size="16" font-weight="700" fill="#4A617B">Complete Board Roadmap</text>

  <rect x="60" y="276" width="214" height="30" rx="9" fill="#F7FAFD" stroke="#D9E3EF"/>
  <text x="72" y="296" font-family="Avenir Next, Inter, Arial, sans-serif" font-size="10" font-weight="800" fill="#2A3E56">9 Units | 18 Sections | 124 SubTopics</text>

  <rect x="286" y="276" width="244" height="30" rx="9" fill="#F7FAFD" stroke="#D9E3EF"/>
  <text x="298" y="296" font-family="Avenir Next, Inter, Arial, sans-serif" font-size="12" font-weight="800" fill="#2A3E56">EB US$89 | REG US$119</text>

  <text x="60" y="319" font-family="Avenir Next, Inter, Arial, sans-serif" font-size="11" font-weight="700" fill="#5F7389">EB End 2026-04-30 | Release 2026-05-31</text>

  <rect x="0" y="334" width="580" height="46" fill="#8B1538"/>
  <text x="30" y="362" font-family="Avenir Next, Inter, Arial, sans-serif" font-size="16" font-weight="800" fill="#FFFFFF">25Maths Payhip Presale</text>
  <text x="550" y="362" text-anchor="end" font-family="Avenir Next, Inter, Arial, sans-serif" font-size="12" font-weight="700" fill="#FFFFFF">Kahoot + Worksheet + Exam Support</text>
</svg>
